<svg xmlns="http://www.w3.org/2000/svg" width="94" height="94" viewBox="417 136 93 94" fill="none"><rect x="417" y="136" width="93" height="94" rx="46.5" fill="#FDE4CC" />
<path d="M476.929 163.975C477.817 163.039 478.68 162.15 479.52 161.237C479.991 160.724 480.501 160.477 481.072 161.006C481.681 161.569 481.352 162.099 480.887 162.557C480.009 163.424 479.114 164.274 478.226 165.131C478.264 165.218 478.302 165.305 478.34 165.39C479.319 165.39 480.302 165.35 481.277 165.408C481.717 165.435 482.202 165.579 482.564 165.824C483.072 166.17 483.155 166.68 482.713 167.207C478.63 172.057 474.557 176.914 470.47 181.758C469.69 182.681 468.872 183.57 468.049 184.457C467.686 184.85 467.33 185.381 466.869 185.527C465.426 185.986 465.511 187.062 465.529 188.23C465.569 191.094 465.575 193.959 465.529 196.823C465.504 198.391 466.116 199.51 467.563 200.055C469.055 200.616 470.582 201.076 472.096 201.576C472.253 201.629 472.422 201.647 472.579 201.7C473.288 201.937 473.873 202.275 473.785 203.178C473.702 204.012 473.095 204.324 472.418 204.407C469.573 204.752 466.723 205.292 463.876 205.282C460.726 205.272 457.576 204.75 454.428 204.426C453.66 204.347 452.974 204.043 452.904 203.131C452.826 202.125 453.583 201.845 454.339 201.607C455.827 201.135 457.343 200.738 458.802 200.191C460.684 199.486 461.13 198.757 461.13 196.791C461.132 193.589 461.122 190.387 461.14 187.185C461.144 186.632 460.941 186.373 460.497 186.007C459.142 184.889 457.807 183.704 456.663 182.373C452.598 177.641 448.602 172.845 444.626 168.037C444.248 167.581 443.9 166.798 444.027 166.289C444.238 165.439 445.134 165.382 445.942 165.382C452.699 165.392 459.458 165.394 466.214 165.37C466.572 165.368 467.123 165.194 467.255 164.931C469.075 161.354 473.865 160.542 476.929 163.975ZM474.511 174.313C472.947 174.313 471.672 174.386 470.408 174.291C469.28 174.208 468.478 174.542 467.722 175.415C466.604 176.707 465.336 177.869 464.119 179.074C463.653 179.536 463.108 179.652 462.618 179.135C462.165 178.659 462.29 178.151 462.71 177.699C462.917 177.479 463.14 177.276 463.351 177.059C464.192 176.199 465.03 175.334 465.983 174.358C461.263 174.358 456.798 174.358 452.212 174.358C452.401 174.597 452.514 174.751 452.641 174.894C455.051 177.649 457.544 180.334 459.85 183.175C461.498 185.205 465.044 185.01 466.467 183.364C467.324 182.373 468.238 181.434 469.107 180.454C470.858 178.479 472.595 176.492 474.511 174.313ZM468.265 171.891C467.595 170.196 467.028 168.76 466.445 167.288C459.882 167.288 453.157 167.288 446.318 167.288C447.595 168.874 448.763 170.382 450.007 171.824C450.287 172.146 450.833 172.401 451.258 172.405C456.374 172.442 461.49 172.444 466.606 172.395C467.219 172.387 467.83 172.029 468.265 171.891ZM463.745 186.713C462.849 186.422 462.921 186.954 462.921 187.442C462.925 190.679 462.939 193.913 462.919 197.149C462.907 199.172 462.063 200.738 460.189 201.588C459.254 202.012 458.251 202.281 457.278 202.617C457.154 202.66 457.019 202.68 456.896 202.73C456.782 202.779 456.679 202.854 456.502 202.957C461.064 203.686 465.508 203.79 470.118 202.947C469.01 202.56 468.056 202.275 467.139 201.898C464.823 200.942 463.669 199.241 463.727 196.651C463.802 193.352 463.745 190.051 463.745 186.713ZM480.391 167.201C479.617 167.235 479.11 167.259 478.577 167.284C478.694 167.879 478.78 168.321 478.893 168.9C479.388 168.339 479.804 167.867 480.391 167.201Z" fill="#F37802" />
<path d="M474.334 174.299C472.436 176.502 470.714 178.514 468.979 180.511C468.118 181.502 467.211 182.453 466.363 183.454C464.952 185.119 461.435 185.316 459.804 183.264C457.518 180.39 455.048 177.674 452.659 174.888C452.535 174.743 452.424 174.587 452.234 174.346C456.781 174.346 461.206 174.346 465.883 174.346C464.94 175.335 464.109 176.207 463.274 177.078C463.065 177.297 462.844 177.502 462.639 177.725C462.222 178.18 462.099 178.694 462.547 179.177C463.033 179.7 463.573 179.583 464.036 179.116C465.241 177.897 466.498 176.722 467.606 175.415C468.355 174.532 469.15 174.194 470.268 174.278C471.519 174.37 472.784 174.299 474.334 174.299Z" fill="#F37802" />
<path d="M467.901 172.092C467.472 172.233 466.869 172.598 466.262 172.604C461.211 172.654 456.161 172.652 451.11 172.615C450.69 172.613 450.152 172.353 449.876 172.022C448.648 170.553 447.497 169.017 446.234 167.398C452.986 167.398 459.624 167.398 466.103 167.398C466.681 168.901 467.24 170.363 467.901 172.092Z" fill="#F37802" />
<path d="M463.716 186.584C463.716 189.949 463.772 193.274 463.699 196.597C463.641 199.208 464.779 200.92 467.064 201.886C467.969 202.268 468.911 202.555 470.004 202.943C465.456 203.792 461.071 203.686 456.57 202.953C456.743 202.849 456.846 202.774 456.959 202.725C457.08 202.674 457.213 202.653 457.336 202.61C458.296 202.272 459.286 202 460.208 201.574C462.056 200.718 462.889 199.141 462.901 197.099C462.921 193.838 462.907 190.578 462.903 187.316C462.903 186.827 462.832 186.29 463.716 186.584Z" fill="#F37802" />
<path d="M480.397 167.266C479.836 167.952 479.438 168.438 478.966 169.014C478.858 168.417 478.776 167.962 478.664 167.349C479.173 167.326 479.658 167.301 480.397 167.266Z" fill="#F37802" />
</svg>